<svg width="20" height="12" viewBox="0 0 20 12" fill="none" xmlns="http://www.w3.org/2000/svg">
<path d="M9.09018 11.5853L0.456945 2.94786C0.314679 2.83731 0.19956 2.69572 0.120365 2.53389C0.041171 2.37206 0 2.1943 0 2.01413C0 1.83396 0.041171 1.6562 0.120365 1.49437C0.19956 1.33254 0.314679 1.19095 0.456945 1.0804C0.624524 0.841997 0.879921 0.679874 1.16698 0.629713C1.45404 0.579552 1.74927 0.64542 1.98777 0.812867C2.10533 0.895952 2.20576 1.00095 2.28358 1.12206L10.0035 8.75947L17.7176 1.12206C17.8147 0.969784 17.9477 0.84376 18.105 0.755089C18.2623 0.666416 18.4391 0.61779 18.6196 0.61359C18.8001 0.60939 18.9789 0.649719 19.1402 0.73098C19.3014 0.812241 19.4402 0.931942 19.5443 1.07954C19.7915 1.27262 19.9522 1.5559 19.9909 1.86724C20.0297 2.17858 19.9433 2.49259 19.7509 2.74039C19.6906 2.81736 19.6212 2.88674 19.5443 2.94704L10.9118 11.5845C10.7006 11.8267 10.4018 11.9751 10.0812 11.9971C9.76054 12.0192 9.44425 11.913 9.20185 11.7019C9.16017 11.6656 9.12119 11.6264 9.0852 11.5845L9.09018 11.5853Z" fill="#0072CE"/>
</svg>
